HIERARCHY
ROOT Hips
{
  OFFSET 5.72205e-005 65.662 3.42586
  CHANNELS 6 Xposition Yposition Zposition Zrotation Xrotation Yrotation
  JOINT Chest
  {
    OFFSET 0 8.7983 -4.7612
    CHANNELS 3 Zrotation Xrotation Yrotation
    JOINT Chest2
    {
      OFFSET 0 8.0291 0.4195
      CHANNELS 3 Zrotation Xrotation Yrotation
      JOINT Chest3
      {
        OFFSET 0 9.9351 -2.2114
        CHANNELS 3 Zrotation Xrotation Yrotation
        JOINT Neck
        {
          OFFSET 0 22.3885 -0.4656
          CHANNELS 3 Zrotation Xrotation Yrotation
          JOINT Head
          {
            OFFSET -0.0001 12.643 3.4389
            CHANNELS 3 Zrotation Xrotation Yrotation
            End Site
            {
              OFFSET 0.0001 17.6655 0.5274
            }
          }
        }
        JOINT LeftCollar
        {
          OFFSET 2.2603 21.606 7.4023
          CHANNELS 3 Zrotation Xrotation Yrotation
          JOINT LeftShoulder
          {
            OFFSET 13.5163 -1.1332 -5.0146
            CHANNELS 3 Zrotation Xrotation Yrotation
            JOINT LeftElbow
            {
              OFFSET -0.0995 -28.05 -0.2431
              CHANNELS 3 Zrotation Xrotation Yrotation
              JOINT LeftWrist
              {
                OFFSET 0.0679 -23.3996 -0.1402
                CHANNELS 3 Zrotation Xrotation Yrotation
                JOINT LeftFinger1
                {
                  OFFSET 0.7932 -9.069 2.5189
                  CHANNELS 3 Zrotation Xrotation Yrotation
                  JOINT LeftFinger11
                  {
                    OFFSET -0.8272 -3.3923 0.5977
                    CHANNELS 3 Zrotation Xrotation Yrotation
                    JOINT LeftFinger12
                    {
                      OFFSET -0.5649 -2.3158 0.4082
                      CHANNELS 3 Zrotation Xrotation Yrotation
                      End Site
                      {
                        OFFSET -0.4919 -1.6479 0.2673
                      }
                    }
                  }
                }
                JOINT LeftFinger2
                {
                  OFFSET 0.9159 -9.2044 0.2193
                  CHANNELS 3 Zrotation Xrotation Yrotation
                  JOINT LeftFinger21
                  {
                    OFFSET 0.0117 -4.1944 -0.0248
                    CHANNELS 3 Zrotation Xrotation Yrotation
                    JOINT LeftFinger22
                    {
                      OFFSET 0.0071 -2.3249 -0.0142
                      CHANNELS 3 Zrotation Xrotation Yrotation
                      End Site
                      {
                        OFFSET -0.1475 -2.0882 0.0028
                      }
                    }
                  }
                }
                JOINT LeftFinger3
                {
                  OFFSET 0.6113 -8.7231 -2.0637
                  CHANNELS 3 Zrotation Xrotation Yrotation
                  JOINT LeftFinger31
                  {
                    OFFSET -0.1927 -3.8059 -0.2383
                    CHANNELS 3 Zrotation Xrotation Yrotation
                    JOINT LeftFinger32
                    {
                      OFFSET -0.1091 -2.1688 -0.1362
                      CHANNELS 3 Zrotation Xrotation Yrotation
                      End Site
                      {
                        OFFSET -0.2358 -1.9176 -0.0906
                      }
                    }
                  }
                }
                JOINT LeftFinger4
                {
                  OFFSET -0.6151 -8.0947 -3.5641
                  CHANNELS 3 Zrotation Xrotation Yrotation
                  JOINT LeftFinger41
                  {
                    OFFSET -0.4882 -2.341 -0.6462
                    CHANNELS 3 Zrotation Xrotation Yrotation
                    JOINT LeftFinger42
                    {
                      OFFSET -0.3575 -1.7167 -0.4742
                      CHANNELS 3 Zrotation Xrotation Yrotation
                      End Site
                      {
                        OFFSET -0.4187 -1.5237 -0.3496
                      }
                    }
                  }
                }
                JOINT LeftFinger0
                {
                  OFFSET -1.42 -1.8761 1.4223
                  CHANNELS 3 Zrotation Xrotation Yrotation
                  JOINT LeftFinger01
                  {
                    OFFSET -1.1471 -3.4929 2.6334
                    CHANNELS 3 Zrotation Xrotation Yrotation
                    JOINT LeftFinger02
                    {
                      OFFSET -0.823 -2.3 1.6571
                      CHANNELS 3 Zrotation Xrotation Yrotation
                      End Site
                      {
                        OFFSET -0.5822 -1.6914 1.1582
                      }
                    }
                  }
                }
              }
            }
          }
        }
        JOINT RightCollar
        {
          OFFSET -2.2603 21.606 7.4023
          CHANNELS 3 Zrotation Xrotation Yrotation
          JOINT RightShoulder
          {
            OFFSET -13.5187 -1.1334 -5.0155
            CHANNELS 3 Zrotation Xrotation Yrotation
            JOINT RightElbow
            {
              OFFSET 0.0994 -28.0499 -0.2431
              CHANNELS 3 Zrotation Xrotation Yrotation
              JOINT RightWrist
              {
                OFFSET -0.0679 -23.3996 -0.1402
                CHANNELS 3 Zrotation Xrotation Yrotation
                JOINT RightFinger1
                {
                  OFFSET -0.7932 -9.0691 2.5189
                  CHANNELS 3 Zrotation Xrotation Yrotation
                  JOINT RightFinger11
                  {
                    OFFSET 0.8272 -3.3923 0.5977
                    CHANNELS 3 Zrotation Xrotation Yrotation
                    JOINT RightFinger12
                    {
                      OFFSET 0.565 -2.3158 0.4082
                      CHANNELS 3 Zrotation Xrotation Yrotation
                      End Site
                      {
                        OFFSET 0.4919 -1.6479 0.2673
                      }
                    }
                  }
                }
                JOINT RightFinger2
                {
                  OFFSET -0.916 -9.2044 0.2193
                  CHANNELS 3 Zrotation Xrotation Yrotation
                  JOINT RightFinger21
                  {
                    OFFSET -0.0117 -4.1944 -0.0248
                    CHANNELS 3 Zrotation Xrotation Yrotation
                    JOINT RightFinger22
                    {
                      OFFSET -0.0071 -2.3249 -0.0142
                      CHANNELS 3 Zrotation Xrotation Yrotation
                      End Site
                      {
                        OFFSET 0.1475 -2.0882 0.0028
                      }
                    }
                  }
                }
                JOINT RightFinger3
                {
                  OFFSET -0.6113 -8.7231 -2.0637
                  CHANNELS 3 Zrotation Xrotation Yrotation
                  JOINT RightFinger31
                  {
                    OFFSET 0.1927 -3.8059 -0.2383
                    CHANNELS 3 Zrotation Xrotation Yrotation
                    JOINT RightFinger32
                    {
                      OFFSET 0.1091 -2.1688 -0.1362
                      CHANNELS 3 Zrotation Xrotation Yrotation
                      End Site
                      {
                        OFFSET 0.2358 -1.9176 -0.0906
                      }
                    }
                  }
                }
                JOINT RightFinger4
                {
                  OFFSET 0.6151 -8.0947 -3.564
                  CHANNELS 3 Zrotation Xrotation Yrotation
                  JOINT RightFinger41
                  {
                    OFFSET 0.4882 -2.341 -0.6462
                    CHANNELS 3 Zrotation Xrotation Yrotation
                    JOINT RightFinger42
                    {
                      OFFSET 0.3574 -1.7166 -0.4742
                      CHANNELS 3 Zrotation Xrotation Yrotation
                      End Site
                      {
                        OFFSET 0.4187 -1.5237 -0.3496
                      }
                    }
                  }
                }
                JOINT RightFinger0
                {
                  OFFSET 1.4199 -1.8761 1.4221
                  CHANNELS 3 Zrotation Xrotation Yrotation
                  JOINT RightFinger01
                  {
                    OFFSET 1.1472 -3.4929 2.6336
                    CHANNELS 3 Zrotation Xrotation Yrotation
                    JOINT RightFinger02
                    {
                      OFFSET 0.8229 -2.3 1.6571
                      CHANNELS 3 Zrotation Xrotation Yrotation
                      End Site
                      {
                        OFFSET 0.5822 -1.6914 1.1582
                      }
                    }
                  }
                }
              }
            }
          }
        }
      }
    }
  }
  JOINT RightHip
  {
    OFFSET -9.412 3.9771 -0.7758
    CHANNELS 3 Zrotation Xrotation Yrotation
    JOINT RightKnee
    {
      OFFSET -0.7531 -40.938 0
      CHANNELS 3 Zrotation Xrotation Yrotation
      JOINT RightAnkle
      {
        OFFSET 0 -40.1986 0
        CHANNELS 3 Zrotation Xrotation Yrotation
        JOINT RightToe
        {
          OFFSET 0 -4.4182 9.239
          CHANNELS 3 Zrotation Xrotation Yrotation
          End Site
          {
            OFFSET 0 0 6.1981
          }
        }
      }
    }
  }
  JOINT LeftHip
  {
    OFFSET 9.4119 3.9773 -0.7758
    CHANNELS 3 Zrotation Xrotation Yrotation
    JOINT LeftKnee
    {
      OFFSET 0.7532 -40.9383 0
      CHANNELS 3 Zrotation Xrotation Yrotation
      JOINT LeftAnkle
      {
        OFFSET 0 -40.1986 0
        CHANNELS 3 Zrotation Xrotation Yrotation
        JOINT LeftToe
        {
          OFFSET 0 -4.4182 9.239
          CHANNELS 3 Zrotation Xrotation Yrotation
          End Site
          {
            OFFSET 0 0 6.1981
          }
        }
      }
    }
  }
}
MOTION
Frames:	4
Frame Time:	0.0333333
5.72205e-005 65.662 3.42586 0 0 -0 0 0 -0 0 0 -0 0 0 -0 0 0 -0 0 0 -0 0 0 -12.5014 88.1196 14.2451 10.6914 -0.00160068 -0.00239207 0.000740045 -8.4365e-005 7.00714e-005 -9.52055e-007 9.93923e-017 -1.98785e-016 -1.59028e-015 9.93923e-017 -5.96354e-016 -1.59028e-015 -9.93923e-017 -5.96354e-016 -1.59028e-015 9.93923e-017 -1.98785e-016 -1.59028e-015 -0.0128176 0.00232552 8.52707e-005 9.93923e-017 5.96354e-016 -0 9.93923e-017 -1.98785e-016 -1.59028e-015 -0.0160551 0.00299681 0.000857156 -2.48481e-016 0 3.18055e-015 9.93923e-017 -1.98785e-016 -1.59028e-015 -0.0125865 0.0031206 0.00282719 0 1.98785e-016 -0 9.93923e-017 -1.98785e-016 -1.59028e-015 9.93923e-017 -5.96354e-016 -1.59028e-015 -9.93923e-017 -5.96354e-016 -1.59028e-015 -0.865644 0.16582 7.03859 -88.0329 10.2057 -10.5567 0.0015593 -0.00248883 -0.000788628 7.87605e-005 4.10553e-005 1.24965e-005 -3.97569e-016 -7.95139e-016 3.18055e-015 -1.98785e-016 -3.97569e-016 3.18055e-015 -1.98785e-016 0 3.18055e-015 -3.97569e-016 -7.95139e-016 3.18055e-015 0.0129473 0.00231697 -8.70038e-005 9.93923e-017 -7.95139e-016 1.59028e-015 -3.97569e-016 -7.95139e-016 3.18055e-015 0.0163314 0.00303369 -0.000872333 3.97569e-016 7.95139e-016 -3.18055e-015 -3.97569e-016 -7.95139e-016 3.18055e-015 0.0145763 0.00367772 -0.00326275 9.93923e-017 -3.97569e-016 -0 -3.97569e-016 -7.95139e-016 3.18055e-015 -1.98785e-016 -3.97569e-016 3.18055e-015 -1.98785e-016 0 3.18055e-015 3.42482 1.32465 -0.0626183 0.000117508 0.717283 0.000978199 -3.4257 -2.04197 -0.0604716 6.47761e-025 0 -0 -3.42483 1.34017 0.0627307 -0.000193936 0.682302 -0.0013703 3.42574 -2.02253 0.0595886 -8.45714e-024 0 -7.40531e-025 
-1.09021e-005 28.3482 -5.30242 6.90101e-009 50.6233 7.11661e-009 -0.00644398 -2.72766 -0.0187341 -0.0138056 -5.4553 -0.0378403 -0.0138056 -5.45529 -0.0378402 7.79768 8.12967 12.2638 -6.0789 10.1343 24.2812 0.283995 -0.118365 -17.5291 87.9717 -4.04474 25.2644 -18.1565 -65.7285 -31.7254 4.82011 -1.79685 0.294822 -3.18055e-015 -9.93923e-017 8.94531e-016 3.18055e-015 -2.98177e-016 7.95139e-016 -0 0 8.44835e-016 -3.18055e-015 -9.93923e-017 8.94531e-016 -0.0128107 0.00234586 9.57546e-005 -3.18055e-015 9.93923e-017 9.69075e-016 -3.18055e-015 -9.93923e-017 8.94531e-016 -0.0160146 0.00299731 0.00085585 -3.18055e-015 9.93923e-017 8.19987e-016 -3.18055e-015 -9.93923e-017 8.94531e-016 -0.0124999 0.00311355 0.00281669 -3.18055e-015 -2.98177e-016 -2.98177e-016 -3.18055e-015 -9.93923e-017 8.94531e-016 3.18055e-015 -2.98177e-016 7.95139e-016 -0 0 8.44835e-016 -1.1628 -0.0291475 12.0619 -87.5085 -7.94207 -25.2937 16.0496 -66.3782 29.116 -4.82659 -1.78646 -0.405685 -9.54166e-015 2.98177e-016 1.2921e-015 -3.18055e-015 9.93923e-017 3.72721e-016 -3.18055e-015 -1.98785e-016 -4.72114e-016 -9.54166e-015 2.98177e-016 1.2921e-015 0.0129278 0.00232023 -0.000104677 -6.36111e-015 -3.97569e-016 -1.83876e-015 -9.54166e-015 2.98177e-016 1.2921e-015 0.0163715 0.00304502 -0.000885009 3.18055e-015 -9.93923e-017 -5.96354e-016 -9.54166e-015 2.98177e-016 1.2921e-015 0.0146284 0.00368349 -0.00327253 3.18055e-015 1.31198e-014 5.2181e-016 -9.54166e-015 2.98177e-016 1.2921e-015 -3.18055e-015 9.93923e-017 3.72721e-016 -3.18055e-015 -1.98785e-016 -4.72114e-016 -1.78526 1.08117 -0.107415 0.0114473 4.67208 -0.541913 -3.4131 23.0043 0.343721 -2.63947e-007 -1.4727e-005 -1.45186e-007 1.78284 1.0628 0.107265 -0.0127704 4.7102 0.540272 3.40945 22.9847 -0.343593 -1.25547e-006 1.20247e-008 2.37238e-007 
-5.96075e-005 3.95417 -9.67234 0 89.9969 -0 -0.0151149 -4.84919 -0.0327296 -0.0332009 -9.69838 -0.0671111 -0.033201 -9.6984 -0.0671114 11.4479 13.7283 22.2478 -16.3352 14.4109 44.1809 0.490586 -0.208493 -21.4395 87.742 -18.3505 36.4348 -149.632 -56.9971 -174.937 8.57756 -3.18208 0.571607 0 0 -0 1.59028e-015 0 -0 -1.59028e-015 0 6.36111e-015 0 0 -0 -0.0128217 0.00232516 8.62909e-005 -1.59028e-015 2.54444e-014 -3.18055e-015 0 0 -0 -0.0160576 0.00300212 0.000860881 1.77289e-005 -6.25365e-006 1.35744e-006 0 0 -0 -0.0125902 0.00312419 0.00282801 -1.76556e-031 3.18055e-015 3.18055e-015 0 0 -0 1.59028e-015 0 -0 -1.59028e-015 0 6.36111e-015 -1.37497 -0.17934 15.969 -86.9945 -22.1921 -36.414 153.398 -57.2662 177.745 -8.59307 -3.15658 -0.767761 -7.69762e-007 -1.85874e-006 1.39892e-006 6.36111e-015 -3.18055e-015 -0 -2.07225e-007 1.89217e-006 2.6142e-006 -7.69762e-007 -1.85874e-006 1.39892e-006 0.0129587 0.00232177 -8.77868e-005 1.59028e-015 0 9.54166e-015 -7.69762e-007 -1.85874e-006 1.39892e-006 0.0163434 0.00303878 -0.000875077 0 0 -0 -7.69762e-007 -1.85874e-006 1.39892e-006 0.0145897 0.00367584 -0.00326261 1.50728e-006 -8.07138e-007 4.25608e-006 -7.69762e-007 -1.85874e-006 1.39892e-006 6.36111e-015 -3.18055e-015 -0 -2.07225e-007 1.89217e-006 2.6142e-006 -5.8068 -1.95875 -0.107249 0.0199017 12.9267 -1.01633 -3.59933 40.1593 0.659251 3.32555e-007 4.21744e-008 -2.67655e-007 5.80325 -1.94805 0.10741 -0.0234785 12.905 1.013 3.59678 40.1705 -0.663029 -3.32555e-007 6.74851e-008 2.67655e-007 
-6.43775e-005 0.668465 -9.9617 -180 84.3783 180 -0.0166102 -5.15227 -0.0346832 -0.0365902 -10.3045 -0.0713087 -0.0365903 -10.3046 -0.0713089 11.8013 14.4405 23.7215 -18.0553 14.5828 47.0683 0.51909 -0.221114 -21.9982 87.7023 -20.3949 38.0176 -152.929 -49.8074 -179.855 9.1153 -3.37876 0.614738 -5.5934e-007 -1.49592e-007 1.47812e-006 3.18055e-015 6.36111e-015 -3.18055e-015 -5.5934e-007 -1.44972e-006 1.47812e-006 -5.5934e-007 -1.49592e-007 1.47812e-006 -0.012799 0.00231252 8.61512e-005 1.1109e-006 2.46479e-006 1.42476e-006 -5.5934e-007 -1.49592e-007 1.47812e-006 -0.0160189 0.00299072 0.000853812 2.38542e-015 -1.30032e-006 -0 -5.5934e-007 -1.49592e-007 1.47812e-006 -0.0125886 0.00312244 0.00282486 1.39437e-006 -4.76011e-006 -1.50454e-006 -5.5934e-007 -1.49592e-007 1.47812e-006 3.18055e-015 6.36111e-015 -3.18055e-015 -5.5934e-007 -1.44972e-006 1.47812e-006 -1.40393 -0.20058 16.5271 -86.9091 -24.2347 -37.9755 156.274 -49.9626 -177.835 -9.13242 -3.35057 -0.822983 1.59028e-015 0 -3.18055e-015 4.77083e-015 -3.18055e-015 -0 1.59028e-015 0 3.18055e-015 1.59028e-015 0 -3.18055e-015 0.0129459 0.00231554 -8.30564e-005 1.59028e-015 3.18055e-015 -0 1.59028e-015 0 -3.18055e-015 0.0163384 0.00304304 -0.000876498 3.18055e-015 0 -0 1.59028e-015 0 -3.18055e-015 0.0145799 0.00367635 -0.00325505 -1.41245e-030 2.54444e-014 3.18055e-015 1.59028e-015 0 -3.18055e-015 4.77083e-015 -3.18055e-015 -0 1.59028e-015 0 3.18055e-015 -6.37957 -2.50777 -0.105214 0.0212597 14.2671 -1.08618 -3.64405 42.5637 0.718194 -1.773e-006 3.96347e-006 3.63843e-007 6.3759 -2.5065 0.105317 -0.025136 14.2646 1.0829 3.64104 42.565 -0.721764 -4.20106e-007 4.97546e-008 -7.29787e-007 
